<?xml version="1.0" standalone="no"?>
<!DOCTYPE svg PUBLIC "-//W3C//DTD SVG 20010904//EN"
 "http://www.w3.org/TR/2001/REC-SVG-20010904/DTD/svg10.dtd">
<svg version="1.0" xmlns="http://www.w3.org/2000/svg"
 width="115.000000pt" height="13.000000pt" viewBox="0 0 115.000000 13.000000"
 preserveAspectRatio="xMidYMid meet">

<g transform="translate(0.000000,13.000000) scale(0.100000,-0.100000)"
fill="#000000" stroke="none">
<path d="M70 109 c0 -5 5 -7 10 -4 6 3 10 8 10 11 0 2 -4 4 -10 4 -5 0 -10 -5
-10 -11z"/>
<path d="M198 109 c-21 -12 -24 -69 -6 -87 15 -15 51 -15 66 0 19 19 14 33 -6
15 -25 -22 -39 -21 -52 3 -20 37 17 87 44 60 16 -16 30 -12 16 5 -14 17 -37
19 -62 4z"/>
<path d="M313 103 c-3 -10 -12 -33 -20 -52 -7 -19 -11 -36 -8 -39 2 -3 7 3 11
12 8 21 50 21 63 -1 19 -32 12 9 -9 55 -21 46 -28 51 -37 25z m27 -40 c0 -7
-6 -10 -14 -7 -8 3 -12 13 -9 25 5 16 8 18 14 7 5 -7 9 -18 9 -25z"/>
<path d="M391 63 c1 -32 4 -48 6 -37 3 15 14 24 34 28 55 11 45 66 -12 66 -29
0 -29 -1 -28 -57z m43 41 c25 -10 19 -34 -9 -34 -24 0 -34 18 -18 33 8 8 8 8
27 1z"/>
<path d="M480 109 c0 -6 7 -9 15 -5 12 4 15 -4 15 -44 0 -28 5 -50 10 -50 6 0
10 20 10 45 0 33 4 45 15 45 8 0 15 5 15 10 0 6 -18 10 -40 10 -23 0 -40 -5
-40 -11z"/>
<path d="M583 94 c-15 -24 -15 -29 -2 -53 11 -19 23 -26 44 -26 15 0 30 6 33
13 3 11 0 11 -16 1 -17 -10 -23 -10 -36 0 -37 31 -5 97 35 73 10 -7 19 -8 19
-3 0 10 -24 21 -46 21 -7 0 -21 -12 -31 -26z"/>
<path d="M691 118 c-5 -18 -3 -99 3 -105 3 -3 6 6 6 21 0 24 3 27 28 24 19 -2
26 -8 24 -20 -1 -9 2 -19 8 -23 6 -4 10 14 10 50 0 36 -4 54 -10 50 -6 -4 -9
-14 -8 -23 2 -12 -5 -18 -24 -20 -22 -3 -27 1 -31 25 -2 15 -5 25 -6 21z"/>
<path d="M820 118 c0 -2 -9 -27 -20 -55 -11 -29 -15 -53 -10 -53 6 0 10 7 10
15 0 21 47 19 59 -2 5 -10 12 -16 14 -13 7 8 -34 110 -44 110 -5 0 -9 -1 -9
-2z m20 -48 c0 -13 -5 -18 -14 -14 -8 3 -12 12 -9 20 8 21 23 17 23 -6z"/>
<path d="M54 66 c-7 -31 4 -68 19 -63 7 2 13 12 14 23 2 10 0 13 -3 7 -10 -22
-24 -14 -24 12 0 26 14 34 24 13 3 -7 5 -4 3 6 -3 29 -25 31 -33 2z"/>
<path d="M897 83 c-13 -13 -7 -32 13 -38 11 -3 20 -11 20 -17 0 -6 -9 -8 -20
-5 -11 3 -20 1 -20 -5 0 -5 12 -8 28 -6 33 4 36 29 5 43 -28 12 -30 29 -3 22
11 -3 20 -1 20 4 0 10 -33 12 -43 2z"/>
</g>
</svg>
