<?xml version="1.0" encoding="UTF-8" standalone="no"?>
<svg
   xmlns:dc="http://purl.org/dc/elements/1.1/"
   xmlns:cc="http://creativecommons.org/ns#"
   xmlns:rdf="http://www.w3.org/1999/02/22-rdf-syntax-ns#"
   xmlns:svg="http://www.w3.org/2000/svg"
   xmlns="http://www.w3.org/2000/svg"
   xmlns:sodipodi="http://sodipodi.sourceforge.net/DTD/sodipodi-0.dtd"
   xmlns:inkscape="http://www.inkscape.org/namespaces/inkscape"
   version="1.1"
   width="45"
   height="45"
   id="svg4570"
   sodipodi:docname="knight.svg"
   inkscape:version="0.92.2 5c3e80d, 2017-08-06">
  <metadata
     id="metadata4576">
    <rdf:RDF>
      <cc:Work
         rdf:about="">
        <dc:format>image/svg+xml</dc:format>
        <dc:type
           rdf:resource="http://purl.org/dc/dcmitype/StillImage" />
      </cc:Work>
    </rdf:RDF>
  </metadata>
  <defs
     id="defs4574" />
  <sodipodi:namedview
     pagecolor="#ffffff"
     bordercolor="#666666"
     borderopacity="1"
     objecttolerance="10"
     gridtolerance="10"
     guidetolerance="10"
     inkscape:pageopacity="0"
     inkscape:pageshadow="2"
     inkscape:window-width="1280"
     inkscape:window-height="711"
     id="namedview4572"
     showgrid="false"
     inkscape:zoom="11.066667"
     inkscape:cx="22.5"
     inkscape:cy="22.5"
     inkscape:window-x="0"
     inkscape:window-y="1"
     inkscape:window-maximized="1"
     inkscape:current-layer="svg4570" />
  <g
     style="opacity:1; fill:none; fill-opacity:1; fill-rule:evenodd; stroke:#000000; stroke-width:1.5; stroke-linecap:round;stroke-linejoin:round;stroke-miterlimit:4; stroke-dasharray:none; stroke-opacity:1;"
     id="g4568">
    <path
       d="M 22,10 C 32.5,11 38.5,18 38,39 L 15,39 C 15,30 25,32.5 23,18"
       style="fill:#ffffff; stroke:#000000;"
       id="path4560" />
    <path
       d="M 24,18 C 24.38,20.91 18.45,25.37 16,27 C 13,29 13.18,31.34 11,31 C 9.958,30.06 12.41,27.96 11,28 C 10,28 11.19,29.23 10,30 C 9,30 5.997,31 6,26 C 6,24 12,14 12,14 C 12,14 13.89,12.1 14,10.5 C 13.27,9.506 13.5,8.5 13.5,7.5 C 14.5,6.5 16.5,10 16.5,10 L 18.5,10 C 18.5,10 19.28,8.008 21,7 C 22,7 22,10 22,10"
       style="fill:#ffffff; stroke:#000000;"
       id="path4562" />
    <path
       d="M 9.5 25.5 A 0.5 0.5 0 1 1 8.5,25.5 A 0.5 0.5 0 1 1 9.5 25.5 z"
       style="fill:#000000; stroke:#000000;"
       id="path4564" />
    <path
       d="M 15 15.5 A 0.5 1.5 0 1 1  14,15.5 A 0.5 1.5 0 1 1  15 15.5 z"
       transform="matrix(0.866,0.5,-0.5,0.866,9.693,-5.173)"
       style="fill:#000000; stroke:#000000;"
       id="path4566" />
  </g>
  <path
     style="fill:#e9c6af;fill-opacity:1;stroke:#aa0000;stroke-width:0.09036145;stroke-opacity:1"
     d="m 15.84855,37.893072 c 0.25089,-1.508258 0.607795,-2.419989 1.369211,-3.497703 0.229709,-0.325134 1.217604,-1.404405 2.195321,-2.398381 2.005516,-2.038867 2.70636,-2.92853 3.340891,-4.240988 0.862247,-1.783467 1.166166,-3.118268 1.235822,-5.427687 0.04842,-1.605412 0.05292,-1.634709 0.346834,-2.259036 0.743905,-1.58019 0.585735,-2.853099 -0.353333,-2.843512 -0.506426,0.0052 -0.778477,0.364601 -0.778477,1.028514 0,0.225906 -0.06704,0.584377 -0.148976,0.796603 -0.655154,1.696917 -3.446745,4.472085 -6.93522,6.894418 -1.457685,1.01219 -2.240261,1.735367 -3.142133,2.903639 -0.683285,0.885118 -1.170026,1.386001 -1.346869,1.386001 -0.115968,0 -0.115263,-0.0026 0.184618,-0.670939 0.392258,-0.874271 0.467891,-1.217005 0.357106,-1.618237 -0.128476,-0.4653 -0.514021,-0.691972 -1.177725,-0.692414 -0.843705,-5.62e-4 -1.2546561,0.486728 -1.2546561,1.487723 v 0.499891 L 9.311747,29.25678 c -1.7526471,0.06458 -2.2273729,-0.392961 -2.4689202,-2.379563 -0.089233,-0.733899 -0.080637,-0.86724 0.092703,-1.437925 0.4259619,-1.402387 1.9488928,-4.425796 4.3207742,-8.577846 0.667181,-1.167922 1.31223,-2.245482 1.433443,-2.394579 1.272337,-1.565032 1.841461,-2.547182 2.034253,-3.510559 0.101222,-0.505804 0.09462,-0.55068 -0.152796,-1.0391571 C 14.394499,9.5682854 14.302817,9.2349473 14.281669,8.8644578 l -0.03095,-0.5421686 0.330402,0.3614457 c 0.181721,0.1987952 0.570022,0.715886 0.862892,1.1490906 0.292871,0.4332045 0.611008,0.8296655 0.706972,0.8810245 0.251188,0.134431 2.438414,0.117544 2.707606,-0.02091 0.119364,-0.06139 0.355616,-0.373806 0.525005,-0.6942559 0.366764,-0.6938459 0.798167,-1.2926904 1.232138,-1.7103704 l 0.316953,-0.3050548 0.09478,0.351984 c 0.05213,0.1935912 0.122827,0.7168821 0.157109,1.1628686 0.08314,1.0816365 0.237766,1.2537465 1.208917,1.3456205 2.545033,0.24077 5.256666,1.168038 7.219232,2.468682 0.999172,0.662178 2.601491,2.267511 3.324552,3.330806 2.255622,3.316994 3.506606,7.647159 4.096335,14.179064 0.05384,0.596386 0.121571,2.497365 0.150505,4.224398 l 0.05261,3.14006 H 26.518212 15.799699 Z M 9.7035398,26.578528 C 10.01976,26.371333 10.282394,25.907643 10.282795,25.555833 10.284207,24.315952 8.8445859,23.757031 8.0323506,24.682115 7.7988464,24.948062 7.753012,25.0753 7.753012,25.457575 c 0,0.577128 0.2027033,0.927998 0.6747669,1.167991 0.4145716,0.210763 0.9101955,0.192489 1.2757609,-0.04704 z m 4.7228032,-9.122795 c 0.423787,-0.219149 1.006899,-0.935961 1.351871,-1.661837 0.270773,-0.569752 0.330344,-0.797236 0.331645,-1.266465 0.0015,-0.532649 -0.0187,-0.590106 -0.293514,-0.835843 -0.338111,-0.302338 -0.848481,-0.354701 -1.280365,-0.131365 -0.603368,0.312013 -1.344195,1.421433 -1.590077,2.381207 -0.171464,0.669287 -0.07156,1.174245 0.288341,1.457339 0.278795,0.219301 0.827474,0.245519 1.192099,0.05696 z"
     id="path4578"
     inkscape:connector-curvature="0" />
  <path
     style="fill:#ffcc00;fill-opacity:1;stroke:#aa0000;stroke-width:0.09036145;stroke-opacity:1"
     d="m 15.941373,37.80271 c 0.106,-0.606667 0.398373,-1.604182 0.61132,-2.08569 0.376616,-0.851598 0.884325,-1.499567 2.553751,-3.259258 0.88739,-0.935369 1.831759,-1.95031 2.098597,-2.255421 1.443429,-1.650465 2.446157,-3.857798 2.714923,-5.976437 0.05674,-0.44729 0.138933,-1.443524 0.182646,-2.213856 0.07142,-1.258655 0.107028,-1.464707 0.351307,-2.033132 0.551229,-1.282677 0.568246,-2.250631 0.04678,-2.660818 -0.278942,-0.219415 -0.575137,-0.235824 -0.931392,-0.0516 -0.285592,0.147685 -0.410484,0.453486 -0.486749,1.191817 -0.162642,1.574536 -2.717056,4.302143 -6.79766,7.258549 -1.690032,1.224432 -2.347842,1.819906 -3.29408,2.981928 -0.793579,0.974549 -1.331994,1.512268 -1.221458,1.219879 0.03758,-0.0994 0.165838,-0.435792 0.285025,-0.747544 0.495804,-1.296859 0.05905,-2.070282 -1.119876,-1.983149 -0.81729,0.06041 -1.1957771,0.491541 -1.2668269,1.443043 l -0.038798,0.519578 H 8.959129 c -1.1917997,0 -1.6333614,-0.353117 -1.8919867,-1.513021 -0.2612016,-1.171459 -0.2189052,-1.82378 0.183129,-2.824328 1.0102356,-2.514187 4.6560237,-9.169282 5.9611437,-10.881593 0.989982,-1.298849 1.446927,-2.182607 1.624658,-3.142175 0.04703,-0.2539 0.0075,-0.463174 -0.1648,-0.8725419 -0.27088,-0.6435809 -0.406352,-1.3412637 -0.240541,-1.238787 0.05987,0.037003 0.450012,0.5283381 0.866979,1.0918565 0.740359,1.0005724 0.767962,1.0260544 1.178115,1.0875604 0.56283,0.0844 2.210787,0.0053 2.436825,-0.116914 0.0994,-0.05376 0.396763,-0.457532 0.660812,-0.8972743 0.502302,-0.836524 1.225694,-1.7400922 1.319495,-1.648142 0.03012,0.029522 0.109603,0.4993071 0.176638,1.0439674 0.06704,0.5446603 0.171531,1.0830599 0.232211,1.1964439 0.14048,0.262488 0.538693,0.427448 1.225301,0.507584 2.521687,0.294311 5.090254,1.179738 6.957832,2.398481 0.903876,0.589851 2.744395,2.418871 3.359996,3.339004 2.931171,4.381195 4.258334,10.534569 4.273008,19.811746 l 0.0025,1.603916 H 26.505271 15.89006 Z M 9.7353809,26.630544 c 0.4257721,-0.302962 0.5932331,-0.624421 0.5884721,-1.129627 -0.01209,-1.283318 -1.4804756,-1.798214 -2.3805083,-0.834741 -0.2895681,0.30998 -0.3595949,0.992649 -0.1476412,1.439308 0.3331433,0.702048 1.3167571,0.968307 1.9396774,0.52506 z m 4.6420481,-9.078398 c 0.411086,-0.171763 1.088701,-0.957414 1.438461,-1.667804 0.237972,-0.48334 0.301684,-0.734102 0.327011,-1.287069 0.03098,-0.676396 0.02712,-0.690419 -0.255458,-0.928193 -0.567032,-0.477126 -1.156723,-0.429997 -1.777316,0.142046 -1.04225,0.960713 -1.626356,2.787801 -1.10367,3.452289 0.323877,0.411744 0.824317,0.517138 1.370972,0.288731 z"
     id="path825"
     inkscape:connector-curvature="0" />
</svg>
