<svg xmlns="http://www.w3.org/2000/svg" width="500" height="120">
<style>
:root { color: #2a2a2a }
@media (prefers-color-scheme: dark) {
	:root { color: #FFF }
}
</style>
<g fill="currentColor"><path d="m174.44 87.87h-11.52l-4-13.68h-16.92l-3.92 13.68h-11.08l16.8-56h13.68zm-17.68-22.87-6.16-23-6.24 23z"/><path d="m210.68 87.87h-7.84l-1.6-4.56q-6.72 5-12.2 5c-3.65 0-6.67-1.73-9-5.16s-3.56-8.54-3.56-15.28 1.35-11.91 4-15.48a12.64 12.64 0 0 1 10.6-5.36q4.32 0 9.28 4v-19.16h10.32zm-10.4-12.32v-15.93q-4.25-3.51-7.12-3.51a5.17 5.17 0 0 0 -4.6 3q-1.73 3-1.72 8.8 0 11.19 6.08 11.2c2.08-.04 4.53-1.22 7.36-3.56z"/><path d="m254 87.87h-7.8l-1.6-4.56q-6.72 5-12.2 5c-3.65 0-6.67-1.73-9-5.16s-3.56-8.54-3.56-15.28 1.35-11.91 4-15.48a12.64 12.64 0 0 1 10.6-5.36q4.32 0 9.28 4v-19.16h10.28zm-10.4-12.32v-15.93q-4.24-3.51-7.12-3.51a5.17 5.17 0 0 0 -4.6 3q-1.72 3-1.72 8.8 0 11.19 6.08 11.2c2.12-.04 4.57-1.22 7.4-3.56z"/><path d="m275.08 87.87v-46.64h-12.88v-9.36h37.12v9.36h-12.72v46.64z"/><path d="m335.24 68q0 9.6-4.88 15t-13.84 5.44q-9 0-13.6-5.44t-4.64-15.12q0-9.69 4.64-15.25t13.36-5.55q8.72 0 13.84 5.64t5.12 15.28zm-10.64-.16q0-12.26-7.84-12.24-8 0-8 12.16t8.08 12.16q4.32 0 6-3.08t1.76-9.05z"/><path d="m384.76 87.87h-11.52l-4-13.68h-16.88l-3.92 13.68h-11.12l16.8-56h13.68zm-17.68-22.87-6.16-23-6.24 23z"/><path d="m424.6 87.87h-10.6v-23.87a10 10 0 0 0 -1.28-5.33 4.63 4.63 0 0 0 -4.24-2c-2 0-4.43 1.22-7.36 3.68v27.6h-10.44v-40h8.8l1.68 3.6a24.5 24.5 0 0 1 6-3.48 17 17 0 0 1 5.88-.92 10.71 10.71 0 0 1 8.48 3.55q3.12 3.57 3.12 10.53z"/><path d="m444.28 88.67-13.12-40.8h10.4l7.76 27.6 7.84-27.6h10.24l-13.4 40a35.17 35.17 0 0 1 -6.24 11.75 28.31 28.31 0 0 1 -9.44 7.13l-3.84-7.36a19.47 19.47 0 0 0 6-4.12 13.76 13.76 0 0 0 3.8-6.6z"/></g><rect fill="#0166ff" height="80" rx="14" width="80" x="32.52" y="20"/><g fill="#fff"><path d="m67.52 40h10v40h-10z"/><path d="m52.52 55h40v10h-40z"/></g>
</svg>