<svg xmlns="http://www.w3.org/2000/svg" viewBox="0 0 32 32" width="32" height="32"><path d="M29 18.35c-.06 1.95-1.75 3.44-3.68 3.44h-8.86a.73.73 0 0 1-.73-.74v-9.54c-.02-.34.18-.65.49-.79 0 0 .81-.56 2.53-.56 1.05 0 2.09.28 2.99.82a5.84 5.84 0 0 1 2.78 3.84 3.516 3.516 0 0 1 3.48.95c.66.69 1.03 1.62 1 2.57Zm-14.39-6.23c.27 3.23.46 6.18 0 9.41a.29.29 0 0 1-.58 0c-.43-3.2-.24-6.2 0-9.41a.29.29 0 0 1 .58 0Zm-1.78 1.11c.31 2.88.4 5.41 0 8.3-.02.15-.15.26-.3.26s-.28-.11-.3-.26c-.36-2.85-.28-5.45 0-8.3 0-.17.13-.3.3-.3s.3.13.3.3Zm-1.8-.28c.29 2.96.42 5.61 0 8.57a.29.29 0 0 1-.58 0c-.41-2.92-.28-5.65 0-8.57a.29.29 0 0 1 .58 0Zm-1.79.84c.35 2.57.35 5.18 0 7.75-.01.15-.14.27-.29.27s-.28-.12-.29-.27c-.33-2.57-.33-5.18 0-7.75 0-.16.13-.3.3-.3s.3.13.3.3Zm-1.81 1.92c.46 2.02.25 3.8-.03 5.85 0 .15-.12.28-.28.28s-.28-.12-.28-.28c-.23-2.02-.43-3.85 0-5.85.01-.15.14-.27.29-.27s.28.12.29.27Zm-1.79-.3c.42 2.06.28 3.81-.01 5.87-.03.3-.56.31-.58 0-.26-2.04-.38-3.84-.01-5.87.02-.15.15-.27.3-.27s.28.11.3.27Zm-1.81.99c.43 1.38.28 2.49-.03 3.88 0 .15-.12.28-.28.28s-.28-.12-.28-.28c-.26-1.37-.38-2.51-.03-3.88.02-.16.15-.28.3-.28s.29.12.3.28Z" style="fill:#fff"/></svg>