<svg xmlns="http://www.w3.org/2000/svg" viewBox="0 0 32 32" width="32" height="32"><path d="M16 3C8.82 3 3 8.82 3 16s5.82 13 13 13 13-5.82 13-13S23.18 3 16 3Zm5.96 18.75a.81.81 0 0 1-1.11.27c-3.05-1.87-6.9-2.29-11.42-1.25-.44.1-.87-.17-.97-.61-.1-.44.17-.87.61-.97 4.95-1.13 9.2-.64 12.63 1.45.38.23.5.73.27 1.11Zm1.59-3.54a1 1 0 0 1-1.39.33c-3.49-2.15-8.82-2.77-12.95-1.52-.54.16-1.1-.14-1.27-.68-.16-.54.14-1.1.68-1.26 4.72-1.43 10.59-.74 14.6 1.73a1 1 0 0 1 .33 1.39Zm.14-3.69c-4.19-2.49-11.1-2.72-15.1-1.5-.64.2-1.32-.17-1.52-.81-.19-.64.17-1.32.81-1.52 4.59-1.39 12.23-1.12 17.05 1.74.58.34.77 1.09.43 1.67-.34.58-1.09.77-1.67.43Z" style="fill:#fff"/></svg>