<svg xmlns="http://www.w3.org/2000/svg" width="32" height="32"><path d="M25.625 5H6.375A1.375 1.375 0 0 0 5 6.375v19.25A1.375 1.375 0 0 0 6.375 27h19.25A1.375 1.375 0 0 0 27 25.625V6.375A1.375 1.375 0 0 0 25.625 5ZM14.57 21.61a1.38 1.38 0 0 1-1.375 1.375h-3.96A1.379 1.379 0 0 1 7.86 21.61V9.235A1.38 1.38 0 0 1 9.235 7.86h3.96a1.38 1.38 0 0 1 1.375 1.375V21.61Zm9.57-5.5a1.38 1.38 0 0 1-1.375 1.375h-3.96a1.379 1.379 0 0 1-1.375-1.375V9.235a1.38 1.38 0 0 1 1.375-1.375h3.96a1.38 1.38 0 0 1 1.375 1.375v6.875Z" /></svg>