<svg xmlns="http://www.w3.org/2000/svg" viewBox="0 0 32 32" width="32" height="32"><path d="M22.62 4.89c-.08 0-.76.13-.85.15l-9.51 1.92c-.25.05-.44.14-.59.27-.18.15-.28.37-.32.62 0 .05-.02.16-.02.32v11.9c0 .28-.02.55-.21.78-.19.23-.42.3-.69.35-.21.04-.41.08-.62.13-.79.16-1.3.27-1.76.45-.44.17-.77.39-1.04.67a2.49 2.49 0 0 0-.66 1.99c.06.59.33 1.16.79 1.58.31.28.7.5 1.15.59.47.1.98.06 1.72-.09.39-.08.76-.2 1.11-.41.35-.2.64-.48.88-.81.23-.33.38-.7.47-1.1.09-.41.11-.77.11-1.18V12.69c0-.55.16-.7.6-.81 0 0 7.91-1.59 8.27-1.67.52-.1.76.05.76.59v7.05c0 .28 0 .56-.19.79-.19.23-.42.3-.69.35-.21.04-.41.08-.62.13-.79.16-1.3.27-1.76.45-.44.17-.77.39-1.04.67-.52.55-.76 1.29-.68 1.99a2.505 2.505 0 0 0 1.96 2.17c.47.1.98.06 1.72-.09.39-.08.76-.2 1.11-.4.35-.2.64-.48.88-.81.23-.33.38-.7.47-1.1.09-.41.09-.77.09-1.18V5.73c0-.55-.29-.89-.8-.84Z" style="fill:#fff"/></svg>