<svg width="408" height="648" viewBox="34 54 360 600" fill="none" xmlns="http://www.w3.org/2000/svg">
<g filter="url(#filter0_d_4375_13644)">
<g clip-path="url(#clip0_4375_13644)">
<path d="M24 24H384V616C384 620.418 380.418 624 376 624H32C27.5817 624 24 620.418 24 616V24Z" fill="#00194C"/>
<rect width="101.697" height="102.529" rx="20" transform="matrix(-0.294789 0.958676 -0.997449 -0.0942321 437.141 70.6328)" fill="#002A80"/>
<rect width="198.054" height="173.853" rx="16" transform="matrix(0.975417 0.220366 -0.452488 0.89177 -52.3359 -6.25)" fill="#002266"/>
<rect width="236.08" height="277.588" rx="20" transform="matrix(0 1 -0.978305 0.207171 159.562 -131.453)" fill="#002A80"/>
<rect width="238.842" height="275.371" rx="20" transform="matrix(-0.88761 0.460596 -0.64708 -0.762422 663.875 376.438)" fill="#002266"/>
</g>
</g>
<defs>
<filter id="filter0_d_4375_13644" x="0" y="0" width="408" height="648" filterUnits="userSpaceOnUse" color-interpolation-filters="sRGB">
<feFlood flood-opacity="0" result="BackgroundImageFix"/>
<feColorMatrix in="SourceAlpha" type="matrix" values="0 0 0 0 0 0 0 0 0 0 0 0 0 0 0 0 0 0 127 0" result="hardAlpha"/>
<feOffset/>
<feGaussianBlur stdDeviation="12"/>
<feColorMatrix type="matrix" values="0 0 0 0 0.101961 0 0 0 0 0.101961 0 0 0 0 0.101961 0 0 0 0.2 0"/>
<feBlend mode="normal" in2="BackgroundImageFix" result="effect1_dropShadow_4375_13644"/>
<feBlend mode="normal" in="SourceGraphic" in2="effect1_dropShadow_4375_13644" result="shape"/>
</filter>
<clipPath id="clip0_4375_13644">
<path d="M24 24H384V616C384 620.418 380.418 624 376 624H32C27.5817 624 24 620.418 24 616V24Z" fill="white"/>
</clipPath>
</defs>
</svg>
