<svg width="103" height="32" viewBox="0 0 103 32" fill="none" xmlns="http://www.w3.org/2000/svg">
<path fill-rule="evenodd" clip-rule="evenodd" d="M98 6.14569C97.8512 6.11259 97.871 6.13341 97.6726 6.0999C97.4904 6.06681 97.2796 6.04183 97.0403 6.02498C96.8003 6.00853 96.54 6 96.2591 6C95.3664 6 94.6137 6.12488 94.0024 6.37464C93.3905 6.6244 92.8902 6.97011 92.5021 7.41115C92.1134 7.8526 91.8326 8.36461 91.659 8.94718C91.4854 9.53017 91.3986 10.1546 91.3986 10.8204V11.4698H89.7619V14.6168H91.3986L91.3986 24H95.6639L95.6639 14.6168H97.747V11.4698H95.6639V11.0951C95.6639 10.5625 95.8084 10.1835 96.0979 9.95872C96.3868 9.73393 96.7303 9.62154 97.1271 9.62154C97.292 9.62154 97.437 9.63007 97.561 9.64651C97.685 9.66337 97.7966 9.68002 97.8958 9.69646C97.995 9.71332 98 9.69231 98 9.69231V6.14569ZM80.1749 16.6263C80.332 16.2517 80.5221 15.948 80.7453 15.7147C80.9685 15.4818 81.2123 15.3151 81.4768 15.2152C81.7411 15.1153 81.9891 15.0653 82.2208 15.0653C82.5018 15.0653 82.8366 15.1153 83.2251 15.2152C83.6134 15.3151 83.9319 15.4818 84.1799 15.7147V20.1604C83.9482 20.5101 83.663 20.7474 83.3243 20.8723C82.9854 20.9971 82.6506 21.0596 82.32 21.0596C82.0224 21.0596 81.7331 21.0057 81.452 20.8972C81.1708 20.7892 80.9189 20.6185 80.6957 20.3852C80.4725 20.1523 80.2904 19.8401 80.1501 19.4486C80.0096 19.0575 79.9393 18.5788 79.9393 18.0125C79.9393 17.463 80.0176 17.001 80.1749 16.6263ZM76.0211 20.9097C76.3187 21.7258 76.7194 22.4083 77.2239 22.9578C77.7281 23.5072 78.3189 23.9194 78.997 24.1941C79.6748 24.4688 80.402 24.6062 81.1792 24.6062C81.7248 24.6062 82.3115 24.4769 82.9399 24.2191C83.5682 23.9612 84.097 23.6157 84.527 23.1826L84.527 24H88.3956V6H84.1303V12.5927C83.7498 12.2099 83.3367 11.9352 82.8903 11.7685C82.444 11.6022 81.8736 11.5187 81.1792 11.5187C80.5508 11.5187 79.906 11.6561 79.2449 11.9308C78.5837 12.2055 77.9802 12.6176 77.4347 13.1671C76.8891 13.7166 76.4427 14.3995 76.0956 15.2152C75.7484 16.0313 75.5748 16.9804 75.5748 18.0624C75.5748 19.145 75.7236 20.094 76.0211 20.9097ZM65.5967 15.8198C65.8776 15.487 66.1919 15.2539 66.5391 15.1205C66.8863 14.9875 67.225 14.9206 67.5558 14.9206C67.8534 14.9206 68.1386 14.9706 68.4114 15.0705C68.6842 15.1704 68.9237 15.3328 69.1305 15.5575C69.337 15.7823 69.5064 16.0781 69.6389 16.4442C69.771 16.8107 69.8373 17.252 69.8373 17.7679C69.8373 18.3674 69.7586 18.8669 69.6017 19.2665C69.4444 19.6661 69.2502 19.9908 69.019 20.2406C68.7873 20.4903 68.531 20.6652 68.2502 20.7651C67.9689 20.865 67.7046 20.9149 67.4566 20.9149C67.1754 20.9149 66.8571 20.865 66.5019 20.7651C66.1462 20.6652 65.8447 20.4989 65.5967 20.2656V15.8198ZM65.6463 23.3876C66.0594 23.804 66.51 24.0869 66.9979 24.2368C67.4854 24.3866 67.9855 24.4615 68.4982 24.4615C69.1593 24.4615 69.8288 24.3242 70.5069 24.0494C71.1845 23.7747 71.7964 23.3586 72.3419 22.8006C72.8875 22.243 73.3339 21.5393 73.6811 20.6901C74.0282 19.841 74.2018 18.8504 74.2018 17.718C74.2018 16.6858 74.0611 15.7742 73.7802 14.9831C73.499 14.1924 73.1146 13.5305 72.6271 12.9975C72.1392 12.4649 71.5688 12.0609 70.916 11.7861C70.2628 11.5114 69.5726 11.374 68.8453 11.374C68.2169 11.374 67.5763 11.5033 66.9235 11.7612C66.2702 12.0195 65.7123 12.365 65.2496 12.7977L65.2495 11.5385H61.381L61.381 30H65.6463V23.3876ZM55.3868 24H59.6521L59.6521 6.9231H55.3868L55.3868 24ZM49.4216 24H53.6869L53.6869 6.9231H49.4216L49.4216 24ZM35.3641 20.9295C35.6532 21.7456 36.05 22.4281 36.5544 22.9776C37.0585 23.527 37.6456 23.9391 38.3151 24.2139C38.9847 24.4886 39.7078 24.626 40.485 24.626C41.0306 24.626 41.6173 24.5011 42.2457 24.2513C42.8737 24.0016 43.4028 23.6605 43.8328 23.2273L43.8328 24H47.7218L47.7218 11.5385H43.8824V13.0371C43.4028 12.4876 42.882 12.1005 42.3201 11.8757C41.7578 11.6509 41.1794 11.5385 40.5842 11.5385C39.9558 11.5385 39.3071 11.6759 38.6375 11.9506C37.968 12.2253 37.3604 12.6374 36.8148 13.1869C36.2693 13.7364 35.8186 14.4193 35.4633 15.235C35.1077 16.0511 34.9301 17.0001 34.9301 18.0822C34.9301 19.1647 35.0746 20.1138 35.3641 20.9295ZM39.5179 16.6461C39.6667 16.2715 39.8526 15.9678 40.0758 15.7345C40.299 15.5016 40.5385 15.3349 40.795 15.235C41.051 15.1351 41.2949 15.0851 41.5266 15.0851C41.8074 15.0851 42.1422 15.1311 42.5309 15.2225C42.9192 15.3143 43.2377 15.4933 43.4856 15.7595V20.1802C43.254 20.5299 42.9688 20.7672 42.6301 20.892C42.291 21.0169 41.9562 21.0794 41.6257 21.0794C41.3282 21.0794 41.043 21.0255 40.7702 20.917C40.4974 20.809 40.2494 20.6383 40.0262 20.405C39.8031 20.1721 39.6251 19.8599 39.4931 19.4684C39.3606 19.0773 39.2947 18.5986 39.2947 18.0323C39.2947 17.4828 39.3691 17.0208 39.5179 16.6461ZM14.4781 24H18.7435L18.7435 16.1341C18.9253 15.8179 19.1609 15.5807 19.4502 15.4223C19.7393 15.2643 20.0165 15.185 20.281 15.185C20.7437 15.185 21.0993 15.3099 21.3473 15.5596C21.5953 15.8094 21.7193 16.3339 21.7193 17.1331L21.7193 24H25.9846L25.9846 16.1341C26.1665 15.8179 26.4021 15.5807 26.6914 15.4223C26.9805 15.2643 27.2576 15.185 27.5221 15.185C27.9848 15.185 28.3405 15.3099 28.5885 15.5596C28.8365 15.8094 28.9605 16.3339 28.9605 17.1331L28.9605 24H33.2258L33.2258 16.4338C33.2258 14.8688 32.8949 13.6615 32.2339 12.8123C31.5726 11.9631 30.5639 11.5385 29.2084 11.5385C28.3653 11.5385 27.6296 11.7383 27.0014 12.1379C26.3729 12.5375 25.8689 13.004 25.4887 13.5366C24.7943 12.2047 23.6203 11.5385 21.9673 11.5385C21.1241 11.5385 20.405 11.7218 19.8098 12.088C19.2146 12.4545 18.7269 12.8791 18.3467 13.3617H18.2475L18.0987 11.8382H14.4781L14.4781 24ZM0 22.2857C0.429634 22.6689 0.941406 23.1628 1.55331 23.4625C2.08214 23.7123 2.7393 23.9414 3.52479 24.1494C4.30987 24.3573 5.23981 24.4616 6.31462 24.4616C7.47168 24.4616 8.48449 24.3157 9.35244 24.0245C10.2204 23.7333 10.9395 23.3376 11.5099 22.8381C12.0803 22.3386 12.5058 21.756 12.787 21.0898C13.0679 20.424 13.2086 19.7161 13.2086 18.9668C13.2086 17.5681 12.8158 16.4736 12.0307 15.6824C11.2452 14.8917 10.1747 14.2963 8.81927 13.8967C8.07532 13.6804 7.44295 13.497 6.92218 13.3472C6.40142 13.1973 5.97984 13.0518 5.65746 12.9101C5.33508 12.7688 5.10342 12.6189 4.9631 12.4605C4.82237 12.3025 4.75232 12.1069 4.75232 11.8736C4.75232 11.4409 4.9507 11.0868 5.34748 10.8121C5.74426 10.5374 6.28982 10.4 6.98418 10.4C7.46341 10.4 7.94698 10.4918 8.43489 10.6747C8.92239 10.8581 9.3729 11.0579 9.78641 11.2742C10.2656 11.5408 10.7288 11.8322 11.1751 12.1483L13.0598 8.302C12.5143 7.95233 11.9191 7.63617 11.2743 7.3529C10.7288 7.11999 10.0879 6.90333 9.35244 6.70352C8.61654 6.50371 7.82733 6.40381 6.98418 6.40381C5.89305 6.40381 4.93831 6.55804 4.11995 6.86587C3.3016 7.17412 2.61964 7.58205 2.07408 8.08969C1.52851 8.59775 1.11933 9.18053 0.846551 9.83803C0.573767 10.4959 0.437376 11.1742 0.437376 11.8736C0.437376 13.1892 0.780215 14.2588 1.46651 15.083C2.1524 15.9072 3.12367 16.511 4.38034 16.8938C5.22349 17.1435 5.93025 17.3477 6.50061 17.5057C7.07098 17.6641 7.52975 17.8179 7.87693 17.9678C8.22411 18.1176 8.47209 18.2718 8.62088 18.4298C8.76967 18.5882 8.84407 18.792 8.84407 19.0417C8.84407 19.4582 8.60415 19.7996 8.12491 20.0658C7.64527 20.3324 7.00051 20.4654 6.19063 20.4654C5.66139 20.4654 5.15302 20.3655 4.66552 20.1657C4.17761 19.9659 3.74364 19.7411 3.3636 19.4913C2.91723 19.2085 2.48718 18.8838 2.07408 18.5172L0 22.2857Z" fill="white"/>
</svg>
